<?xml version="1.0" encoding="utf-8"?>
<!-- Generator: Adobe Illustrator 14.0.0, SVG Export Plug-In . SVG Version: 6.00 Build 43363)  -->
<!DOCTYPE svg PUBLIC "-//W3C//DTD SVG 1.1//EN" "http://www.w3.org/Graphics/SVG/1.1/DTD/svg11.dtd">
<svg version="1.1" id="Layer_1" xmlns="http://www.w3.org/2000/svg" xmlns:xlink="http://www.w3.org/1999/xlink" x="0px" y="0px"
	 width="50px" height="50px" viewBox="0 0 50 50" enable-background="new 0 0 50 50" xml:space="preserve">
<g id="Layer_1_1_" display="none">
</g>
<g id="Layer_5">
</g>
<g id="Layer_4">
</g>
<g id="Layer_6">
</g>
<g id="Layer_2" display="none">
	<path display="inline" fill="none" stroke="#000000" stroke-linecap="round" stroke-linejoin="round" d="M-69.5,1.016
		c0,0-3.185,0.431-3.287,4.678c0,0,0.154,2.305,0.869,5.016l3.37,12.014c0,0,1.634,5.15,7.046,5.15h0.256
		c5.412,0,7.046-5.15,7.046-5.15l3.371-12.014c0.713-2.711,0.867-5.016,0.867-5.016c-0.102-4.248-3.287-4.678-3.287-4.678"/>
	<path display="inline" fill="none" stroke="#000000" stroke-linecap="round" stroke-linejoin="round" d="M-69.674,18.816
		c0,0,1.891,6.059,8.151,6.059h0.296c6.261,0,8.151-6.059,8.151-6.059"/>
</g>
<g id="guides">
</g>
<g id="Layer_8">
</g>
<g>
	<path fill="none" stroke="#34CBB4" stroke-linecap="round" stroke-linejoin="round" d="M17.667,5.833c0,0,3.326,2.397,7.5,0.5
		c3.666-1.667,4.667-1.333,7.5-0.5"/>
	<g id="Layer_7">
		<g>
			<path fill="none" stroke="#FFFFFF" stroke-linecap="round" stroke-linejoin="round" d="M25.486,20.174v3.053
				c0,1.39-1.127,2.517-2.52,2.517H15.87c0,0-2.35-0.191-2.35,2.277c0,2.566,2.35,2.273,2.35,2.273h18.428
				c0,0,2.181-0.094,2.181,2.279s-1.547,2.422-2.226,2.422c-0.683,0-6.588,0-6.588,0s-2.133,0.025-2.133,1.967"/>
		</g>
	</g>
	<path fill="none" stroke="#FFFFFF" stroke-linecap="round" stroke-linejoin="round" d="M33,11.738c0,4.234-3.432,7.666-7.666,7.666
		l0,0c-4.234,0-7.667-3.432-7.667-7.666V3.176c0-4.234,15.333-4.234,15.333,0V11.738z"/>
	<path fill="none" stroke="#FFFFFF" stroke-linecap="round" stroke-linejoin="round" d="M30.162,14.083
		c-0.684,1.471-1.998,2.589-3.598,3.007"/>
	<path fill="none" stroke="#FFFFFF" stroke-linecap="round" stroke-linejoin="round" d="M24.416,43.807
		c0,0.33,0.117,0.602,0.26,0.602h1.648c0.144,0,0.26-0.271,0.26-0.602v-5.803c0-0.33-0.116-0.6-0.26-0.6h-1.648
		c-0.143,0-0.26,0.27-0.26,0.6V43.807z"/>
	<line fill="none" stroke="#FFFFFF" stroke-linecap="round" stroke-linejoin="round" x1="25.5" y1="44.738" x2="25.5" y2="48.738"/>
</g>
</svg>
