<?xml version="1.0" encoding="utf-8"?>
<!-- Generator: Adobe Illustrator 14.0.0, SVG Export Plug-In . SVG Version: 6.00 Build 43363)  -->
<!DOCTYPE svg PUBLIC "-//W3C//DTD SVG 1.1//EN" "http://www.w3.org/Graphics/SVG/1.1/DTD/svg11.dtd">
<svg version="1.1" xmlns="http://www.w3.org/2000/svg" xmlns:xlink="http://www.w3.org/1999/xlink" x="0px" y="0px" width="50px"
	 height="50px" viewBox="0 0 50 50" enable-background="new 0 0 50 50" xml:space="preserve">
<g id="Layer_1">
	<g id="Layer_1_1_" display="none">
	</g>
	<g id="Layer_5">
	</g>
	<g id="Layer_4">
	</g>
	<g id="Layer_6">
	</g>
	<g id="Layer_2" display="none">
		<path display="inline" fill="none" stroke="#000000" stroke-linecap="round" stroke-linejoin="round" d="M-69.5,1.016
			c0,0-3.185,0.431-3.287,4.678c0,0,0.154,2.305,0.869,5.016l3.37,12.014c0,0,1.634,5.15,7.046,5.15h0.256
			c5.412,0,7.046-5.15,7.046-5.15l3.371-12.014c0.713-2.711,0.867-5.016,0.867-5.016c-0.102-4.248-3.287-4.678-3.287-4.678"/>
		<path display="inline" fill="none" stroke="#000000" stroke-linecap="round" stroke-linejoin="round" d="M-69.674,18.816
			c0,0,1.891,6.059,8.151,6.059h0.296c6.261,0,8.151-6.059,8.151-6.059"/>
	</g>
	<g id="guides">
	</g>
	<g id="Layer_8">
	</g>
	<circle fill="none" stroke="#FFFFFF" stroke-linecap="round" stroke-linejoin="round" cx="25" cy="25" r="23.666"/>
</g>
<g id="Layer_1_copy">
	<g id="Layer_1_3_" display="none">
	</g>
	<g id="Layer_5_1_">
	</g>
	<g id="Layer_4_1_">
	</g>
	<g id="Layer_6_1_">
	</g>
	<g id="Layer_2_1_" display="none">
		<path display="inline" fill="none" stroke="#000000" stroke-linecap="round" stroke-linejoin="round" d="M-69.5,1.016
			c0,0-3.185,0.431-3.287,4.678c0,0,0.154,2.305,0.869,5.016l3.37,12.014c0,0,1.634,5.15,7.046,5.15h0.256
			c5.412,0,7.046-5.15,7.046-5.15l3.371-12.014c0.713-2.711,0.867-5.016,0.867-5.016c-0.102-4.248-3.287-4.678-3.287-4.678"/>
		<path display="inline" fill="none" stroke="#000000" stroke-linecap="round" stroke-linejoin="round" d="M-69.674,18.816
			c0,0,1.891,6.059,8.151,6.059h0.296c6.261,0,8.151-6.059,8.151-6.059"/>
	</g>
	<g id="guides_1_">
	</g>
	<g id="Layer_8_1_">
	</g>
</g>
<g id="Layer_2_copy_2">
	<path fill="none" stroke="#34CBB4" stroke-linecap="round" stroke-linejoin="round" d="M38.023,20.758h-8.782v-8.781
		c0-0.494-0.399-0.893-0.893-0.893h-6.698c-0.493,0-0.893,0.399-0.893,0.893v8.781h-8.781c-0.494,0-0.893,0.4-0.893,0.893v6.698
		c0,0.493,0.399,0.893,0.893,0.893h8.781v8.782c0,0.493,0.4,0.893,0.893,0.893h6.698c0.493,0,0.893-0.399,0.893-0.893v-8.782h8.782
		c0.493,0,0.893-0.399,0.893-0.893v-6.698C38.916,21.158,38.517,20.758,38.023,20.758z"/>
</g>
</svg>
