<?xml version="1.0" encoding="utf-8"?>
<!-- Generator: Adobe Illustrator 14.0.0, SVG Export Plug-In . SVG Version: 6.00 Build 43363)  -->
<!DOCTYPE svg PUBLIC "-//W3C//DTD SVG 1.1//EN" "http://www.w3.org/Graphics/SVG/1.1/DTD/svg11.dtd">
<svg version="1.1" id="Layer_1" xmlns="http://www.w3.org/2000/svg" xmlns:xlink="http://www.w3.org/1999/xlink" x="0px" y="0px"
	 width="50px" height="50px" viewBox="0 0 50 50" enable-background="new 0 0 50 50" xml:space="preserve">
<g id="Layer_7_copy_2">
	<path fill="none" stroke="#FFFFFF" d="M31.32,10.399c1.076,0.458,2.088,1.043,3.015,1.735c3.562,2.661,5.872,6.91,5.872,11.688
		c0,8.039-6.543,14.582-14.582,14.582l0,0c-6.397,0-11.846-4.34-13.805-10.081 M16.488,28.323c1.62,3.422,5.107,5.6,9.137,5.6
		c5.568,0,10.102-4.53,10.102-10.101c0-4.735-3.273-8.719-7.678-9.808"/>
</g>
<g id="Layer_5">
	
		<line fill="none" stroke="#FFFFFF" stroke-linecap="round" stroke-linejoin="round" x1="25.932" y1="31.999" x2="25.932" y2="43.855"/>
	
		<line fill="none" stroke="#34CBB4" stroke-linecap="round" stroke-linejoin="round" x1="20.855" y1="28.343" x2="7.501" y2="28.343"/>
	<polygon fill="none" stroke="#FFFFFF" stroke-linecap="round" stroke-linejoin="round" points="14.144,48.625 37.721,48.625 
		36.188,44.537 15.677,44.537 	"/>
</g>
<g id="Layer_6">
</g>
<g id="Layer_7_copy">
	
		<line fill="none" stroke="#34CBB4" stroke-linecap="round" stroke-linejoin="round" x1="23.458" y1="17.842" x2="18.255" y2="12.639"/>
	
		<rect x="21.328" y="1.383" transform="matrix(0.707 0.7072 -0.7072 0.707 15.3311 -14.5967)" fill="none" stroke="#FFFFFF" stroke-linecap="round" stroke-linejoin="round" width="7.905" height="19.64"/>
	
		<rect x="31.056" y="1.445" transform="matrix(0.7071 0.7072 -0.7072 0.7071 11.974 -22.6889)" fill="none" stroke="#FFFFFF" stroke-linecap="round" stroke-linejoin="round" width="4.632" height="3.326"/>
</g>
<g id="guides" display="none">
</g>
</svg>
