<?xml version="1.0" encoding="utf-8"?>
<!-- Generator: Adobe Illustrator 14.0.0, SVG Export Plug-In . SVG Version: 6.00 Build 43363)  -->
<!DOCTYPE svg PUBLIC "-//W3C//DTD SVG 1.1//EN" "http://www.w3.org/Graphics/SVG/1.1/DTD/svg11.dtd">
<svg version="1.1" xmlns="http://www.w3.org/2000/svg" xmlns:xlink="http://www.w3.org/1999/xlink" x="0px" y="0px" width="50px"
	 height="50px" viewBox="0 0 50 50" enable-background="new 0 0 50 50" xml:space="preserve">
<g id="Layer_1">
	
		<rect x="8.174" y="11.073" fill="none" stroke="#34CBB4" stroke-linecap="round" stroke-linejoin="round" width="33.652" height="38.927"/>
	
		<line fill="none" stroke="#34CBB4" stroke-linecap="round" stroke-linejoin="round" x1="41.826" y1="44.667" x2="8.174" y2="44.667"/>
	
		<line fill="none" stroke="#34CBB4" stroke-linecap="round" stroke-linejoin="round" x1="8.174" y1="16.406" x2="41.826" y2="16.406"/>
	
		<rect x="10.34" y="0.5" fill="none" stroke="#34CBB4" stroke-linecap="round" stroke-linejoin="round" width="29.32" height="5.945"/>
	<g>
		
			<line fill="none" stroke="#34CBB4" stroke-linecap="round" stroke-linejoin="round" x1="12.499" y1="10.601" x2="12.499" y2="6.656"/>
		
			<line fill="none" stroke="#34CBB4" stroke-linecap="round" stroke-linejoin="round" x1="37.501" y1="6.656" x2="37.501" y2="10.601"/>
	</g>
	<path fill="none" stroke="#34CBB4" stroke-linecap="round" stroke-linejoin="round" d="M33.998,27.605H27.93v-6.066
		c0-0.342-0.275-0.617-0.617-0.617h-4.627c-0.34,0-0.617,0.275-0.617,0.617v6.066h-6.067c-0.341,0-0.616,0.276-0.616,0.617v4.628
		c0,0.34,0.275,0.616,0.616,0.616h6.067v6.067c0,0.341,0.276,0.616,0.617,0.616h4.627c0.341,0,0.617-0.275,0.617-0.616v-6.067h6.068
		c0.34,0,0.617-0.275,0.617-0.616v-4.628C34.615,27.882,34.34,27.605,33.998,27.605z"/>
</g>
<g id="Layer_2">
	<g>
		
			<line fill="none" stroke="#34CBB4" stroke-linecap="round" stroke-linejoin="round" x1="35.583" y1="1.167" x2="35.583" y2="6.333"/>
		<line fill="none" stroke="#34CBB4" stroke-linecap="round" stroke-linejoin="round" x1="31.35" y1="6" x2="31.35" y2="1.167"/>
		
			<line fill="none" stroke="#34CBB4" stroke-linecap="round" stroke-linejoin="round" x1="27.116" y1="1.167" x2="27.116" y2="6.333"/>
		<line fill="none" stroke="#34CBB4" stroke-linecap="round" stroke-linejoin="round" x1="22.884" y1="6" x2="22.884" y2="1.167"/>
		
			<line fill="none" stroke="#34CBB4" stroke-linecap="round" stroke-linejoin="round" x1="18.65" y1="1.167" x2="18.65" y2="6.333"/>
		<line fill="none" stroke="#34CBB4" stroke-linecap="round" stroke-linejoin="round" x1="14.417" y1="6" x2="14.417" y2="1.167"/>
	</g>
</g>
</svg>
