<?xml version="1.0" encoding="utf-8"?>
<!-- Generator: Adobe Illustrator 14.0.0, SVG Export Plug-In . SVG Version: 6.00 Build 43363)  -->
<!DOCTYPE svg PUBLIC "-//W3C//DTD SVG 1.1//EN" "http://www.w3.org/Graphics/SVG/1.1/DTD/svg11.dtd">
<svg version="1.1" id="Layer_1" xmlns="http://www.w3.org/2000/svg" xmlns:xlink="http://www.w3.org/1999/xlink" x="0px" y="0px"
	 width="50px" height="50px" viewBox="0 0 50 50" enable-background="new 0 0 50 50" xml:space="preserve">
<g id="Layer_1_2_">
	<g id="Layer_1_1_" display="none">
	</g>
	<g id="Layer_5">
	</g>
	<g id="Layer_4">
	</g>
	<g id="Layer_6">
	</g>
	<g id="Layer_2" display="none">
		<path display="inline" fill="none" stroke="#000000" stroke-linecap="round" stroke-linejoin="round" d="M-69.5,1.016
			c0,0-3.185,0.431-3.287,4.678c0,0,0.154,2.305,0.869,5.016l3.37,12.014c0,0,1.634,5.15,7.046,5.15h0.256
			c5.412,0,7.046-5.15,7.046-5.15l3.371-12.014c0.713-2.711,0.867-5.016,0.867-5.016c-0.102-4.248-3.287-4.678-3.287-4.678"/>
		<path display="inline" fill="none" stroke="#000000" stroke-linecap="round" stroke-linejoin="round" d="M-69.674,18.816
			c0,0,1.891,6.059,8.151,6.059h0.296c6.261,0,8.151-6.059,8.151-6.059"/>
	</g>
	<g id="guides">
	</g>
	<g id="Layer_8">
	</g>
</g>
<g id="Layer_1_copy">
	<g id="Layer_1_3_" display="none">
	</g>
	<g id="Layer_5_1_">
	</g>
	<g id="Layer_4_1_">
	</g>
	<g id="Layer_6_1_">
	</g>
	<g id="Layer_2_1_" display="none">
		<path display="inline" fill="none" stroke="#000000" stroke-linecap="round" stroke-linejoin="round" d="M-69.5,1.016
			c0,0-3.185,0.431-3.287,4.678c0,0,0.154,2.305,0.869,5.016l3.37,12.014c0,0,1.634,5.15,7.046,5.15h0.256
			c5.412,0,7.046-5.15,7.046-5.15l3.371-12.014c0.713-2.711,0.867-5.016,0.867-5.016c-0.102-4.248-3.287-4.678-3.287-4.678"/>
		<path display="inline" fill="none" stroke="#000000" stroke-linecap="round" stroke-linejoin="round" d="M-69.674,18.816
			c0,0,1.891,6.059,8.151,6.059h0.296c6.261,0,8.151-6.059,8.151-6.059"/>
	</g>
	<g id="guides_1_">
	</g>
	<g id="Layer_8_1_">
	</g>
</g>
<path fill="none" stroke="#34CBB4" stroke-linecap="round" stroke-linejoin="round" d="M20.489,32.939l-4.547,4.548l1.403,1.402
	l-8.218,8.218c0,0-4.24,4.182-8.419,0.003l16.327-16.327"/>
<line fill="none" stroke="#34CBB4" stroke-linecap="round" stroke-linejoin="round" x1="12.433" y1="39.591" x2="7.823" y2="44.201"/>
<path fill="none" stroke="#FFFFFF" stroke-linecap="round" stroke-linejoin="round" d="M22.005,33.531L48.212,7.324
	c1.439-1.44,1.438-3.773,0-5.212l0,0c-1.438-1.438-3.772-1.44-5.211,0L15.286,29.825L22.005,33.531z"/>
<path fill="none" stroke="#FFFFFF" stroke-linecap="round" stroke-linejoin="round" d="M17.77,27.692l6.388,3.522"/>
<path fill="none" stroke="#FFFFFF" stroke-linecap="round" stroke-linejoin="round" d="M19.902,25.56l6.322,3.486"/>
<path fill="none" stroke="#FFFFFF" stroke-linecap="round" stroke-linejoin="round" d="M22.036,23.425l6.104,3.366"/>
</svg>
