<?xml version="1.0" encoding="utf-8"?>
<!-- Generator: Adobe Illustrator 14.0.0, SVG Export Plug-In . SVG Version: 6.00 Build 43363)  -->
<!DOCTYPE svg PUBLIC "-//W3C//DTD SVG 1.1//EN" "http://www.w3.org/Graphics/SVG/1.1/DTD/svg11.dtd">
<svg version="1.1" id="Layer_1" xmlns="http://www.w3.org/2000/svg" xmlns:xlink="http://www.w3.org/1999/xlink" x="0px" y="0px"
	 width="50px" height="50px" viewBox="0 0 50 50" enable-background="new 0 0 50 50" xml:space="preserve">
<g id="Layer_1_2_">
	<g id="Layer_1_1_" display="none">
	</g>
	<g id="Layer_5">
	</g>
	<g id="Layer_4">
	</g>
	<g id="Layer_6">
	</g>
	<g id="Layer_2" display="none">
		<path display="inline" fill="none" stroke="#000000" stroke-linecap="round" stroke-linejoin="round" d="M-69.5,1.016
			c0,0-3.185,0.431-3.287,4.678c0,0,0.154,2.305,0.869,5.016l3.37,12.014c0,0,1.634,5.15,7.046,5.15h0.256
			c5.412,0,7.046-5.15,7.046-5.15l3.371-12.014c0.713-2.711,0.867-5.016,0.867-5.016c-0.102-4.248-3.287-4.678-3.287-4.678"/>
		<path display="inline" fill="none" stroke="#000000" stroke-linecap="round" stroke-linejoin="round" d="M-69.674,18.816
			c0,0,1.891,6.059,8.151,6.059h0.296c6.261,0,8.151-6.059,8.151-6.059"/>
	</g>
	<g id="guides">
	</g>
	<g id="Layer_8">
	</g>
</g>
<g id="Layer_1_copy">
	<g id="Layer_1_3_" display="none">
	</g>
	<g id="Layer_5_1_">
	</g>
	<g id="Layer_4_1_">
	</g>
	<g id="Layer_6_1_">
	</g>
	<g id="Layer_2_1_" display="none">
		<path display="inline" fill="none" stroke="#000000" stroke-linecap="round" stroke-linejoin="round" d="M-69.5,1.016
			c0,0-3.185,0.431-3.287,4.678c0,0,0.154,2.305,0.869,5.016l3.37,12.014c0,0,1.634,5.15,7.046,5.15h0.256
			c5.412,0,7.046-5.15,7.046-5.15l3.371-12.014c0.713-2.711,0.867-5.016,0.867-5.016c-0.102-4.248-3.287-4.678-3.287-4.678"/>
		<path display="inline" fill="none" stroke="#000000" stroke-linecap="round" stroke-linejoin="round" d="M-69.674,18.816
			c0,0,1.891,6.059,8.151,6.059h0.296c6.261,0,8.151-6.059,8.151-6.059"/>
	</g>
	<g id="guides_1_">
	</g>
	<g id="Layer_8_1_">
	</g>
</g>
<g>
	
		<line fill="none" stroke="#FFFFFF" stroke-linecap="round" stroke-linejoin="round" x1="48.455" y1="8.161" x2="41.633" y2="1.339"/>
	
		<line fill="none" stroke="#FFFFFF" stroke-linecap="round" stroke-linejoin="round" x1="32.535" y1="24.082" x2="25.713" y2="17.26"/>
	
		<line fill="none" stroke="#34CBB4" stroke-linecap="round" stroke-linejoin="round" x1="20.736" y1="29.343" x2="17.325" y2="25.931"/>
	
		<line fill="none" stroke="#34CBB4" stroke-linecap="round" stroke-linejoin="round" x1="21.873" y1="26.215" x2="19.315" y2="23.657"/>
	
		<line fill="none" stroke="#34CBB4" stroke-linecap="round" stroke-linejoin="round" x1="17.609" y1="30.479" x2="15.051" y2="27.922"/>
	
		<rect x="11.715" y="34.362" transform="matrix(-0.7072 -0.707 0.707 -0.7072 -1.1026 70.8813)" fill="none" stroke="#FFFFFF" stroke-linecap="round" stroke-linejoin="round" width="4.822" height="2.614"/>
	
		<line fill="none" stroke="#FFFFFF" stroke-linecap="round" stroke-linejoin="round" x1="45.045" y1="4.75" x2="29.123" y2="20.671"/>
	
		<line fill="none" stroke="#FFFFFF" stroke-linecap="round" stroke-linejoin="round" x1="12.917" y1="36.877" x2="1.544" y2="48.25"/>
	
		<rect x="21.456" y="7.632" transform="matrix(-0.7071 -0.7071 0.7071 -0.7071 28.2358 58.724)" fill="none" stroke="#FFFFFF" stroke-linecap="round" stroke-linejoin="round" width="9.648" height="31.764"/>
</g>
</svg>
