<?xml version="1.0" encoding="utf-8"?>
<!-- Generator: Adobe Illustrator 14.0.0, SVG Export Plug-In . SVG Version: 6.00 Build 43363)  -->
<!DOCTYPE svg PUBLIC "-//W3C//DTD SVG 1.1//EN" "http://www.w3.org/Graphics/SVG/1.1/DTD/svg11.dtd">
<svg version="1.1" xmlns="http://www.w3.org/2000/svg" xmlns:xlink="http://www.w3.org/1999/xlink" x="0px" y="0px" width="50px"
	 height="50px" viewBox="0 0 50 50" enable-background="new 0 0 50 50" xml:space="preserve">
<g id="Layer_1" display="none">
</g>
<g id="Layer_5">
</g>
<g id="Layer_4">
</g>
<g id="Layer_6">
</g>
<g id="Layer_7">
	<g>
		<circle fill="none" stroke="#FFFFFF" stroke-linecap="round" stroke-linejoin="round" cx="25.533" cy="44.924" r="3.586"/>
		<circle fill="none" stroke="#34CBB4" stroke-linecap="round" stroke-linejoin="round" cx="25.534" cy="44.924" r="1.647"/>
		<polyline fill="none" stroke="#FFFFFF" stroke-linecap="round" stroke-linejoin="round" points="22.572,20.183 25.533,24.484 
			28.492,20.183 		"/>
		<path fill="none" stroke="#FFFFFF" stroke-linecap="round" stroke-linejoin="round" d="M25.486,24.436v3.053
			c0,1.391-1.127,2.517-2.52,2.517h-7.096c0,0-2.35-0.191-2.35,2.278c0,2.568,2.35,2.275,2.35,2.275h18.428
			c0,0,2.18-0.093,2.18,2.28s-1.547,2.421-2.225,2.421c-0.682,0-6.588,0-6.588,0s-2.133,0.027-2.133,1.966"/>
		<path fill="none" stroke="#FFFFFF" stroke-linecap="round" stroke-linejoin="round" d="M19.721,2.252
			c-1.641,0-2.324,1.114-1.887,2.971l2.324,11.784c0.654,1.81,1.332,2.973,2.971,2.973h4.809c1.643,0,2.391-1.308,2.975-2.973
			l2.324-11.784c0.531-1.857-0.055-2.971-1.697-2.971"/>
		<path fill="none" stroke="#34CBB4" stroke-linecap="round" stroke-linejoin="round" d="M29.271,2.658
			c0,0.224,0.184,0.406,0.408,0.406h1.164c0.227,0,0.408-0.182,0.408-0.406V1.899c0-0.224-0.182-0.407-0.408-0.407H29.68
			c-0.225,0-0.408,0.183-0.408,0.407V2.658z"/>
		<path fill="none" stroke="#34CBB4" stroke-linecap="round" stroke-linejoin="round" d="M20.1,2.658
			c0,0.224,0.182,0.406,0.406,0.406h1.166c0.223,0,0.406-0.182,0.406-0.406V1.899c0-0.224-0.184-0.407-0.406-0.407h-1.166
			c-0.225,0-0.406,0.183-0.406,0.407V2.658z"/>
	</g>
</g>
<g id="Layer_2" display="none">
	<path display="inline" fill="none" stroke="#000000" stroke-linecap="round" stroke-linejoin="round" d="M-69.5,1.016
		c0,0-3.185,0.431-3.287,4.678c0,0,0.154,2.305,0.869,5.016l3.37,12.014c0,0,1.634,5.15,7.046,5.15h0.256
		c5.412,0,7.046-5.15,7.046-5.15l3.371-12.014c0.713-2.711,0.867-5.016,0.867-5.016c-0.102-4.248-3.287-4.678-3.287-4.678"/>
	<path display="inline" fill="none" stroke="#000000" stroke-linecap="round" stroke-linejoin="round" d="M-69.674,18.816
		c0,0,1.891,6.059,8.151,6.059h0.296c6.261,0,8.151-6.059,8.151-6.059"/>
</g>
<g id="guides">
</g>
<g id="Layer_8">
</g>
</svg>
